<?xml version="1.0" encoding="iso-8859-1"?>
<!-- Uploaded to: SVG Repo, www.svgrepo.com, Generator: SVG Repo Mixer Tools -->
<svg height="800px" width="800px" version="1.1" id="Layer_1" xmlns="http://www.w3.org/2000/svg" xmlns:xlink="http://www.w3.org/1999/xlink" 
	 viewBox="0 0 280.029 280.029" xml:space="preserve">
<g>
	<path style="fill:#D1D5D7;" d="M262.526,113.762l-13.004-4.253c-2.494-8.943-6.003-17.458-10.475-25.369l6.161-12.181
		c6.834-6.834,6.834-17.913,0-24.765l-12.374-12.373c-6.834-6.834-17.913-6.834-24.747,0l-12.172,6.178
		c-7.911-4.48-16.425-7.99-25.369-10.484l-4.279-13.021c-0.001-9.661-7.842-17.493-17.502-17.493h-17.502
		c-9.661,0-17.502,7.832-17.502,17.493l-4.244,13.021c-8.926,2.476-17.397,5.968-25.29,10.422L71.95,34.821
		c-6.834-6.834-17.913-6.834-24.747,0L34.82,47.194c-6.834,6.843-6.834,17.922,0,24.765l6.108,12.269
		c-4.437,7.858-7.911,16.285-10.396,25.159l-13.03,4.375C7.841,113.762,0,121.603,0,131.264v17.502
		c0,9.67,7.841,17.502,17.502,17.502l13.039,4.375c2.485,8.873,5.968,17.318,10.396,25.159l-6.108,12.286
		c-6.834,6.826-6.834,17.913,0,24.747l12.374,12.374c6.834,6.834,17.913,6.834,24.747,0l12.277-6.108
		c7.85,4.428,16.285,7.902,25.159,10.387l4.375,13.048c0,9.661,7.841,17.493,17.502,17.493h17.502
		c9.661,0,17.502-7.832,17.502-17.493l4.375-13.048c8.908-2.485,17.362-5.986,25.246-10.44l12.199,6.169
		c6.834,6.834,17.913,6.834,24.747,0l12.374-12.374c6.834-6.834,6.834-17.922,0-24.747l-6.178-12.19
		c4.48-7.902,7.99-16.408,10.484-25.351l13.013-4.288c9.661,0,17.502-7.832,17.502-17.502v-17.502
		C280.027,121.603,272.187,113.762,262.526,113.762z M140.014,192.529c-28.992,0-52.505-23.514-52.505-52.514
		c0-28.992,23.514-52.514,52.505-52.514s52.505,23.522,52.505,52.514C192.519,169.023,169.005,192.529,140.014,192.529z"/>
	<path style="fill:#EBEBEB;" d="M140.014,26.262c-62.831,0-113.761,50.93-113.761,113.761s50.93,113.761,113.761,113.761
		s113.761-50.921,113.761-113.761C253.775,77.192,202.845,26.262,140.014,26.262z M140.014,175.027
		c-19.331,0-35.003-15.673-35.003-35.003s15.673-35.003,35.003-35.003s35.003,15.673,35.003,35.003S159.344,175.027,140.014,175.027
		z"/>
	<path style="fill:#D1D5D7;" d="M140.014,78.767c-33.831,0-61.256,27.425-61.256,61.256s27.425,61.256,61.256,61.256
		s61.256-27.425,61.256-61.256S173.844,78.767,140.014,78.767z M140.014,175.027c-19.331,0-35.003-15.673-35.003-35.003
		s15.673-35.003,35.003-35.003s35.003,15.673,35.003,35.003S159.344,175.027,140.014,175.027z"/>
</g>
</svg>